<?xml version="1.0" standalone="no"?>
<!DOCTYPE svg PUBLIC "-//W3C//DTD SVG 20010904//EN"
 "http://www.w3.org/TR/2001/REC-SVG-20010904/DTD/svg10.dtd">
<svg version="1.0" xmlns="http://www.w3.org/2000/svg"
 width="244.000000pt" height="244.000000pt" viewBox="0 0 244.000000 244.000000"
 preserveAspectRatio="xMidYMid meet">
<metadata>
Created by potrace 1.14, written by Peter Selinger 2001-2017
</metadata>
<g transform="translate(0.000000,244.000000) scale(0.100000,-0.100000)"
fill="#000000" stroke="none">
<path d="M1025 2415 c-38 -7 -90 -19 -115 -26 -25 -7 -49 -13 -55 -15 -29 -6
-154 -57 -199 -81 -63 -34 -170 -104 -174 -115 -2 -4 -8 -8 -12 -8 -5 0 -21
-11 -36 -25 -16 -15 -39 -25 -58 -26 -17 0 -58 -1 -91 -2 l-60 -2 -3 -104 c-3
-95 -6 -108 -31 -145 -79 -114 -158 -323 -178 -471 -9 -66 -9 -308 1 -365 11
-66 34 -157 58 -224 24 -69 98 -219 110 -224 4 -2 8 -8 8 -14 0 -11 57 -88 75
-100 5 -4 6 -8 1 -8 -4 0 6 -14 24 -30 18 -17 30 -30 26 -30 -5 0 28 -31 119
-115 49 -44 185 -131 260 -165 39 -18 79 -36 90 -42 12 -5 27 -10 35 -12 8 -1
35 -9 60 -16 55 -16 59 -17 90 -25 124 -29 433 -26 514 5 12 4 24 8 29 8 33 4
78 16 82 22 3 5 23 11 45 15 22 4 40 12 40 18 0 5 3 8 6 4 7 -6 169 76 195 99
8 8 19 14 23 14 12 0 146 111 146 121 0 5 7 9 15 9 8 0 15 3 15 8 0 4 17 25
38 47 89 94 196 260 223 344 6 20 15 41 19 46 8 12 35 98 44 140 4 17 9 41 12
55 16 75 19 108 18 250 -1 122 -6 174 -23 245 -39 166 -106 316 -192 436 -45
61 -48 70 -51 135 l-3 69 -64 3 c-61 3 -68 6 -145 64 -44 33 -87 63 -96 66 -8
3 -17 8 -20 12 -26 31 -288 133 -375 145 -22 3 -47 9 -55 12 -30 12 -316 10
-385 -2z m-375 -359 c0 -2 -8 -10 -17 -17 -16 -13 -17 -12 -4 4 13 16 21 21
21 13z m1161 -13 c13 -16 12 -17 -3 -4 -10 7 -18 15 -18 17 0 8 8 3 21 -13z
m-1201 -16 c0 -2 -10 -12 -22 -23 l-23 -19 19 23 c18 21 26 27 26 19z m1241
-14 c13 -16 12 -17 -3 -4 -10 7 -18 15 -18 17 0 8 8 3 21 -13z m406 -815 c-3
-8 -6 -5 -6 6 -1 11 2 17 5 13 3 -3 4 -12 1 -19z m-154 -493 c-3 -9 -8 -14
-10 -11 -3 3 -2 9 2 15 9 16 15 13 8 -4z m-56 -87 c-3 -8 -6 -5 -6 6 -1 11 2
17 5 13 3 -3 4 -12 1 -19z m-1192 -356 c-3 -3 -11 0 -18 7 -9 10 -8 11 6 5 10
-3 15 -9 12 -12z m755 14 c0 -2 -7 -7 -16 -10 -8 -3 -12 -2 -9 4 6 10 25 14
25 6z m-403 -92 c-3 -3 -12 -4 -19 -1 -8 3 -5 6 6 6 11 1 17 -2 13 -5z"/>
</g>
</svg>
